# xmcd CD database file
#
# Track frame offsets:
#	150
#	21114
#	43438
#	68762
#	90990
#	111232
#	130271
#	149243
#	170316
#	181787
#
# Disc length: 2525 seconds
#
# Revision: 0
# Processed by: cddbd v1.5.1PL2 Copyright (c) Steve Scherf et al.
# Submitted via: CDex 1.51
#
DISCID=8b09db0a
DTITLE=Cordovan - Highway 10 Blues
DYEAR=2006
DGENRE=Jazz
TTITLE0=Highway 10 Blues
TTITLE1=Mesa
TTITLE2=Gwen
TTITLE3=La Nevada (Gil Evans)
TTITLE4=Jackpot
TTITLE5=Trouble
TTITLE6=Pretend Gems
TTITLE7=Equator
TTITLE8=Motel Coffee
TTITLE9=Another Soft Shoulder
EXTD=YEAR: 2006
EXTT0=
EXTT1=
EXTT2=
EXTT3=
EXTT4=
EXTT5=
EXTT6=
EXTT7=
EXTT8=
EXTT9=
PLAYORDER=
